<?xml version="1.0" standalone="no"?>
<!DOCTYPE svg PUBLIC "-//W3C//DTD SVG 20010904//EN"
 "http://www.w3.org/TR/2001/REC-SVG-20010904/DTD/svg10.dtd">
<svg version="1.0" xmlns="http://www.w3.org/2000/svg"
 width="228.000000pt" height="50.000000pt" viewBox="0 0 228.000000 50.000000"
 preserveAspectRatio="xMidYMid meet">

<g transform="translate(0.000000,50.000000) scale(0.100000,-0.100000)"
fill="#000000" stroke="none">
<path d="M146 319 c-76 -94 -135 -173 -131 -177 3 -3 85 -34 181 -68 l176 -62
-6 37 c-4 20 -9 48 -12 63 l-5 27 74 3 74 3 -101 172 c-55 95 -104 172 -107
173 -3 0 -68 -77 -143 -171z"/>
<path d="M615 371 c-48 -21 -73 -77 -55 -121 12 -28 54 -54 125 -76 53 -17 41
-74 -16 -74 -18 0 -34 8 -41 20 -15 24 -78 29 -78 6 0 -24 40 -64 76 -76 77
-26 154 17 154 85 0 56 -14 71 -90 100 -49 19 -70 32 -70 44 0 41 60 57 82 21
17 -27 68 -28 68 -1 0 37 -42 73 -90 77 -25 2 -54 0 -65 -5z"/>
<path d="M1092 368 c-28 -28 -1 -75 38 -63 22 7 27 44 8 63 -15 15 -31 15 -46
0z"/>
<path d="M1190 213 l0 -163 30 0 30 0 -2 162 -3 161 -27 1 -28 2 0 -163z"/>
<path d="M1290 213 l0 -163 30 0 c30 0 30 1 30 55 l0 55 40 0 c98 0 155 62
131 142 -17 56 -45 70 -146 71 l-85 2 0 -162z m158 95 c7 -7 12 -24 12 -38 0
-37 -18 -50 -67 -50 l-43 0 0 50 0 50 43 0 c24 0 48 -5 55 -12z"/>
<path d="M1786 364 c-27 -27 -12 -64 26 -64 15 0 38 27 38 44 0 8 -31 36 -40
36 -5 0 -16 -7 -24 -16z"/>
<path d="M2150 314 c0 -37 -3 -43 -22 -46 -33 -4 -37 -45 -6 -50 22 -3 23 -8
26 -86 l3 -82 29 0 30 0 0 85 c0 78 2 85 20 85 15 0 20 7 20 25 0 18 -5 25
-19 25 -16 0 -20 8 -23 42 -3 37 -6 41 -30 43 -26 1 -28 -2 -28 -41z"/>
<path d="M858 253 c-33 -21 -48 -53 -48 -102 0 -76 78 -129 142 -96 21 10 34
12 36 5 2 -5 17 -10 33 -10 l29 0 0 110 0 110 -29 0 c-16 0 -31 -5 -33 -11 -3
-9 -9 -9 -25 0 -30 16 -73 13 -105 -6z m110 -56 c17 -13 15 -57 -5 -79 -21
-24 -58 -23 -83 2 -23 23 -24 33 -9 61 18 35 63 42 97 16z"/>
<path d="M1090 160 l0 -110 30 0 30 0 0 110 0 110 -30 0 -30 0 0 -110z"/>
<path d="M1583 260 c-52 -21 -73 -112 -39 -166 59 -89 206 -49 206 57 0 51
-18 87 -51 105 -31 16 -82 17 -116 4z m95 -62 c21 -21 14 -66 -13 -84 -51 -33
-104 21 -71 71 18 27 63 34 84 13z"/>
<path d="M1780 160 l0 -110 30 0 30 0 0 110 0 110 -30 0 -30 0 0 -110z"/>
<path d="M1880 160 l0 -110 30 0 30 0 0 68 c0 73 10 92 47 92 31 0 43 -28 43
-99 l0 -61 31 0 31 0 -4 89 c-2 70 -7 93 -22 110 -23 25 -72 28 -104 5 -20
-14 -22 -14 -22 0 0 11 -10 16 -30 16 l-30 0 0 -110z"/>
<path d="M2246 77 c3 -10 9 -15 12 -12 3 3 0 11 -7 18 -10 9 -11 8 -5 -6z"/>
</g>
</svg>
